<?xml version="1.0" encoding="utf-8"?>
<!-- Generator: Adobe Illustrator 22.0.1, SVG Export Plug-In . SVG Version: 6.00 Build 0)  -->
<svg version="1.1" id="Layer_1" xmlns="http://www.w3.org/2000/svg" xmlns:xlink="http://www.w3.org/1999/xlink" x="0px" y="0px"
	 viewBox="0 0 128 128" style="enable-background:new 0 0 128 128;" xml:space="preserve">
<style type="text/css">
	.st0{fill:#EC272A;}
</style>
<g>
	<path class="st0" d="M78.9,116.3c-7.5-2.2-12.5-9.4-13-18.1c-0.2-4.5,1-8.7,1.6-13.1c0.7-5.2-2.8-9.5-8.1-10.1
		c-3.1-0.3-6.2,0.3-9,1.6c-0.6,0.3-1.1,0.7-1.6,1.1c-0.9,0.8-1.3,1.8-0.8,2.9c0.5,1.1,1.6,0.9,2.6,0.8c1.5-0.1,2.8-0.9,4-1.7
		c2.5-1.7,4.6-1.4,6.5,1c3.3,4.2,2.5,10.4-1.8,14.3c-3.4,3-7.6,4.4-11.9,5.4c-7.6,1.8-15.3,2.1-23.1,1.1c-2.7-0.3-5.4-0.9-8.1-1.6
		c-1.4-0.4-1.7-1-1.7-2.4c0.4-8.7,0.6-17.4,1.1-26.1c0.1-2.1-0.8-2.3-2.4-2.1c-1.6,0.2-2.9,0.8-4.1,1.9c-1.1,1-2.4,1.7-4,1.5
		c-1-0.1-1.9-0.6-2.3-1.6c-0.3-0.9,0.1-1.8,0.8-2.4c1.3-1.4,3-1.9,4.8-2c1.8-0.1,3.6-0.1,5.4-0.2c0.8,0,1.4,0,1-1.2
		c-1.8-6.5-0.8-9.2,4.7-13.1c14.7-10.4,34.6-10.9,49.7-1c3.6,2.4,7.4,4.4,11.2,6.4c1.1,0.6,2.8,1.3,2.4,2.7c-0.4,1.5-2.2,1-3.4,0.9
		c-2.6-0.1-4.9-0.9-7-2.6c-1.4-1.2-2.8-2.2-4-3.5c-10.7-11.4-35.7-12-47.4,2.4c-1.8,2.2-1.4,4-0.5,6.2c0.9,2.1,2.2,2.8,4.5,2.8
		c8.2-0.2,16.3-0.5,24.5,0c4.7,0.2,9.2-0.5,13.8-0.7c5.6-0.2,11.3-1,16.7,1c4.5,1.6,7.3,4.8,7.9,9.6c0.5,4.6-0.4,8.6-4.6,11.3
		c-0.2,0.1-0.4,0.2-1.1,0.5c3.3,1,5.8,2.1,8.4,3.7c-0.4-4.5-0.5-8.7-0.2-12.9C91.6,61.3,110,58.1,120,65.3c1.9,1.3,3.7,2.7,5.4,4.2
		c0.6,0.6,1.2,1.2,0.8,2.1c-0.4,0.8-1.3,0.7-2,0.6c-3.5-0.5-6.7-1.8-9-4.5c-4.6-5.4-12.9-4.4-15.9,2.2c-1.7,3.6-2.1,7.5-2.4,11.4
		c-0.3,4.9,0.5,9.6,2.4,14.1c0.7,1.8,0.1,2.4-1.6,2.8c-3.5,0.6-6.5,0.4-8.9-2.8c-2.2-2.9-5.7-3.4-9.1-3.5c-2.6-0.1-4.6-0.6-6-3.7
		C71.4,98.7,72.1,107.9,78.9,116.3z M41,84.7c0.2,3.3,0.6,6.3,1.7,9.1c0.2,0.6,0.8,1-0.1,1.6c-3,2.3-7,2-9.5-0.7
		c-2.7-2.9-5.6-5.5-9.4-6.7c-0.8-0.3-2-0.9-2,0.9c0,3.7,0,7.3,0,11c0,0.9,0.2,1.2,1.3,1.2c3.3-0.2,6.5,0,9.8-0.3
		c6.3-0.5,12.4-1.8,17.5-5.9c3.4-2.7,5.1-6.2,4.9-10.7C50.5,85.7,45.9,87.2,41,84.7z M74.4,85c1.6-0.5,2.9-1.3,4.1-2.3
		c4-3.1,4-8.4-0.2-11.4c-5.1-3.8-14.5-3.7-20.3-0.1c3.9,0.8,7.8,1.3,11.4,3c4.1,1.9,5.3,3.9,5,8.4C74.4,83.3,74.4,84,74.4,85z
		 M21.7,79.1c1.8-0.8,3.2-1.5,4.7-2.2c2.8-1.4,5.4-3.1,7.7-5.1c0.6-0.6,0.9-1.3,0.7-2c-0.2-0.9-1.1-0.5-1.6-0.5c-3.3,0-6.5,0-9.8,0
		c-0.9,0-1.7,0-1.6,1.2C21.7,73.3,21.7,76,21.7,79.1z M28.4,83.7c2,1.8,3.9,3.5,6.2,5.6c-0.5-3.7-0.3-6.9-0.1-10.4
		C32.3,80.6,30.4,82.1,28.4,83.7z M41.2,76.6c2.1-3.2,5.3-4.8,8.5-6.8c-8.7-0.8-8.8-0.7-8.8,6.3C40.9,76.2,41,76.3,41.2,76.6z"/>
	<path class="st0" d="M86.4,99.1c0,2-1.1,3-3.1,2.7c-2.6-0.4-5.1-0.9-7.6-1.4c-0.9-0.2-1.8-0.7-1.7-1.8c0-1.2,0.6-2.4,1.8-2.6
		c3.1-0.7,6.3-0.8,9.3,0.4C86.1,96.9,86.3,98,86.4,99.1z"/>
	<path class="st0" d="M33.1,43.1l-9.5-15l0.6,17.8c0,1.4,0,2.3,0,2.9c0,0.6-0.2,1.2-0.6,1.8c-0.4,0.6-1,1-1.8,1.3
		C21.1,52,20.5,52,20,51.9c-0.5-0.1-1-0.4-1.4-0.8c-0.4-0.4-0.8-0.9-1.2-1.5c-0.4-0.6-0.7-1.1-1-1.6l-10.2-17c-0.6-1-1-1.8-1.2-2.3
		c-0.2-0.7-0.2-1.4,0.2-2s0.9-1.1,1.6-1.3c1-0.3,1.8-0.2,2.3,0.3c0.5,0.5,1.1,1.4,1.8,2.5l8.5,14.9L18.8,27c-0.1-1.2-0.1-2.2,0-2.9
		c0.1-0.7,0.3-1.3,0.7-1.9c0.4-0.6,1.1-1,2-1.3c0.9-0.3,1.7-0.3,2.4,0c0.7,0.3,1.2,0.7,1.5,1.2c0.4,0.5,0.9,1.3,1.6,2.4l8.6,13.7
		l-1.3-17.1c-0.1-0.9-0.1-1.6-0.1-2.1c0-0.5,0.1-1,0.4-1.5c0.3-0.5,0.8-0.8,1.5-1.1c0.7-0.2,1.4-0.2,2.1,0.2
		c0.7,0.3,1.1,0.8,1.3,1.6c0.2,0.5,0.3,1.4,0.3,2.6l1.1,19.8c0.1,1.3,0.1,2.3,0.1,3c0,0.6-0.2,1.3-0.6,1.8s-1,1-1.9,1.3
		c-0.8,0.3-1.6,0.3-2.2,0c-0.6-0.3-1.1-0.6-1.5-1.1C34.5,45.1,33.9,44.2,33.1,43.1z"/>
	<path class="st0" d="M56.7,36.8H46.3c0,1.2,0.3,2.3,0.7,3.2c0.5,0.9,1.1,1.6,1.9,2.1c0.8,0.5,1.7,0.7,2.6,0.7
		c0.6,0,1.2-0.1,1.7-0.2c0.5-0.1,1-0.4,1.5-0.7c0.5-0.3,0.9-0.7,1.4-1c0.4-0.4,1-0.9,1.6-1.5c0.3-0.2,0.7-0.4,1.2-0.4
		c0.5,0,1,0.1,1.3,0.4c0.3,0.3,0.5,0.7,0.5,1.3c0,0.5-0.2,1-0.6,1.7c-0.4,0.6-0.9,1.3-1.7,1.9c-0.8,0.6-1.7,1.1-2.9,1.5
		c-1.2,0.4-2.5,0.6-4,0.6c-3.4,0-6.1-1-8-2.9c-1.9-2-2.8-4.6-2.8-7.9c0-1.6,0.2-3,0.7-4.4s1.2-2.5,2-3.5c0.9-1,2-1.7,3.3-2.2
		c1.3-0.5,2.8-0.8,4.4-0.8c2.1,0,3.9,0.4,5.4,1.3c1.5,0.9,2.6,2,3.3,3.4c0.7,1.4,1.1,2.8,1.1,4.3c0,1.3-0.4,2.2-1.2,2.6
		C59.2,36.6,58.1,36.8,56.7,36.8z M46.3,33.8h9.7c-0.1-1.8-0.6-3.2-1.5-4.1c-0.9-0.9-2-1.4-3.4-1.4c-1.3,0-2.4,0.5-3.3,1.4
		C47,30.6,46.5,32,46.3,33.8z"/>
	<path class="st0" d="M66.2,23.7v8.1c1-1,2-1.8,3.1-2.4c1-0.6,2.3-0.8,3.9-0.8c1.8,0,3.3,0.4,4.7,1.3c1.3,0.8,2.4,2.1,3.1,3.6
		c0.7,1.6,1.1,3.5,1.1,5.7c0,1.6-0.2,3.1-0.6,4.4s-1,2.5-1.8,3.5c-0.8,1-1.7,1.8-2.8,2.3c-1.1,0.5-2.3,0.8-3.7,0.8
		c-0.8,0-1.6-0.1-2.3-0.3c-0.7-0.2-1.3-0.5-1.8-0.8c-0.5-0.3-0.9-0.6-1.3-1c-0.4-0.3-0.8-0.8-1.4-1.5v0.5c0,1-0.2,1.8-0.7,2.3
		c-0.5,0.5-1.1,0.8-1.8,0.8c-0.8,0-1.4-0.3-1.8-0.8c-0.4-0.5-0.7-1.3-0.7-2.3V23.9c0-1.1,0.2-1.9,0.7-2.4c0.4-0.6,1-0.8,1.8-0.8
		c0.8,0,1.5,0.3,1.9,0.8C66,22,66.2,22.7,66.2,23.7z M66.5,39.5c0,2.1,0.5,3.7,1.5,4.9c1,1.1,2.2,1.7,3.8,1.7c1.3,0,2.5-0.6,3.5-1.7
		c1-1.2,1.5-2.8,1.5-5c0-1.4-0.2-2.6-0.6-3.6c-0.4-1-1-1.8-1.7-2.4c-0.7-0.6-1.6-0.8-2.6-0.8c-1,0-1.9,0.3-2.7,0.8
		c-0.8,0.6-1.4,1.4-1.9,2.4C66.7,36.8,66.5,38.1,66.5,39.5z"/>
</g>
</svg>
